<?xml version="1.0" encoding="UTF-8" standalone="no"?>
<!-- Created with Inkscape (http://www.inkscape.org/) -->
<svg
   xmlns:svg="http://www.w3.org/2000/svg"
   xmlns="http://www.w3.org/2000/svg"
   version="1.0"
   width="379.48871"
   height="287.56003"
   id="svg2">
  <defs
     id="defs4" />
  <g
     transform="translate(-158.76971,-447.68633)"
     id="layer1">
    <g
       id="g2517">
      <path
         d="M 177.93863,447.68633 C 167.35055,447.68633 158.76971,456.26881 158.76971,466.85689 L 158.76971,716.07417 C 158.76971,726.66389 167.35055,735.24637 177.93863,735.24637 L 519.0895,735.24637 C 529.67758,735.24637 538.25843,726.66389 538.25843,716.07417 L 538.25843,466.85689 C 538.25843,456.26881 529.67758,447.68633 519.0895,447.68633 L 177.93863,447.68633"
         id="path2390"
         style="fill:#cc0000" />
      <path
         d=""
         id="path2392" />
      <path
         d="M 319.23506,577.43871 C 324.39934,539.25692 341.4214,470.39008 373.88537,470.39008 C 411.78135,470.39008 456.31664,597.6983 456.3035,703.09942 L 421.35595,703.09942 C 421.35595,592.55045 394.27801,492.94272 374.79372,492.93943 C 354.47007,492.93615 336.65956,560.69424 336.65956,689.78138 L 301.75637,689.78138 C 301.75637,560.69424 284.05263,492.93943 263.62057,492.93943 C 244.17405,492.93943 217.11418,592.56852 217.11418,703.09942 L 182.16499,703.09942 C 182.19784,597.60796 226.61651,470.37858 264.58312,470.39008 C 297.00273,470.40158 314.03137,539.24706 319.23506,577.43871"
         id="path2394"
         style="fill:#ffc20f" />
      <rect
         width="160.98935"
         height="40.681797"
         x="296.39331"
         y="620.05878"
         id="rect2396"
         style="fill:#cc0000" />
      <path
         d=""
         id="path2398" />
      <rect
         width="10.129795"
         height="33.326321"
         x="441.1441"
         y="623.33081"
         id="rect2400"
         style="fill:#ffffff" />
      <polyline
         transform="matrix(1.6425807,0,0,1.6425807,102.49161,393.12965)"
         style="fill:#ffffff"
         points="235.018,140.146 239.217,140.146 237.791,145.676 234.738,145.676 235.018,140.146   "
         id="polyline2402" />
      <path
         d="M 507.3122,628.26837 C 514.05335,628.26837 520.38222,629.96845 520.41342,636.58311 L 510.79611,636.58311 C 510.79611,634.30486 509.46398,633.26674 507.21857,633.26674 C 505.88644,633.26674 504.08453,633.82193 504.08453,635.90966 C 504.08946,639.37386 509.56911,638.68233 514.22254,640.0621 C 518.40291,641.30225 521.30371,643.79405 521.30371,647.82494 C 521.30371,653.99447 516.46302,657.40776 507.31549,657.44389 C 497.7261,657.48002 494.11899,654.02568 494.0845,647.82494 L 503.83486,647.82494 C 503.83486,650.16726 505.29183,651.55688 507.34834,651.55688 C 509.80893,651.55688 510.92588,650.62554 510.92588,648.88276 C 510.92588,645.25922 504.20444,645.35778 500.24582,644.05686 C 497.54706,643.17479 495.1029,641.17906 495.1029,636.93792 C 495.09797,633.39486 497.75402,628.26837 507.3122,628.26837"
         id="path2404"
         style="fill:#ffffff" />
      <path
         d="M 299.84604,646.55851 C 298.16404,653.18303 292.66797,657.47839 285.81347,657.47839 C 277.53651,657.47839 271.24214,651.21523 271.25036,642.15639 C 271.25693,633.10249 276.85156,626.83933 285.81347,626.83111 C 293.24451,626.82455 298.35951,631.1396 299.89532,637.77727 L 290.41599,637.77727 C 289.68832,635.78154 288.29213,634.22601 285.81347,634.22601 C 281.63146,634.22601 280.52765,638.65934 280.52929,642.15639 C 280.53093,645.65345 281.63146,650.08348 285.81347,650.08348 C 288.28063,650.08348 289.67682,648.54275 290.40613,646.55851 L 299.84604,646.55851"
         id="path2406"
         style="fill:#ffffff" />
      <polyline
         transform="matrix(1.6425807,0,0,1.6425807,102.49161,393.12965)"
         style="fill:#ffffff"
         points="77.601,140.148 84.97,140.148 88.178,152.134 91.385,140.148 98.758,140.148 101.98,160.936     95.901,160.936 94.295,148.788 90.972,160.936 85.382,160.936 82.06,148.788 80.454,160.936 74.37,160.936 77.601,140.148   "
         id="polyline2408" />
      <path
         d="M 385.19783,640.33313 C 385.19783,641.49772 385.19783,656.66367 385.19783,656.66367 L 375.18465,656.66367 L 375.18465,627.54399 L 385.19783,627.54399 L 385.19783,629.82061 C 387.73233,627.84787 390.02373,626.83111 395.22085,626.83111 C 400.86804,626.83111 405.4147,630.60412 405.41635,634.56274 L 405.41635,656.66367 L 395.32926,656.66367 L 395.32926,640.63537 C 395.33255,637.97602 392.94916,635.80617 390.35553,635.80617 C 387.01616,635.80617 385.35551,638.75953 385.19783,640.33313"
         id="path2410"
         style="fill:#ffffff" />
      <path
         d="M 464.03513,643.01546 C 464.03513,647.57198 466.1557,650.48427 469.63633,650.48427 C 471.72405,650.48427 473.47339,649.57429 474.54765,647.67546 L 474.54765,638.93365 C 474.01216,637.00362 472.13469,635.58114 469.63633,635.58114 C 466.15077,635.57786 464.03513,638.4573 464.03513,643.01546 M 474.546,630.43822 L 474.546,623.33242 L 484.67744,623.33242 L 484.67744,656.65874 L 474.546,656.65874 L 474.546,655.04572 C 473.21715,656.24481 471.47274,657.4751 467.10675,657.4751 C 462.19544,657.4751 454.38989,654.74513 454.38661,643.01875 C 454.38004,631.31043 462.18558,628.27001 467.73915,628.27001 C 471.77333,628.26837 473.67708,629.66128 474.546,630.43822 z"
         id="path2412"
         style="fill:#ffffff" />
      <path
         d="M 362.64355,642.15967 C 362.64519,638.65934 361.43296,634.23094 356.84195,634.2293 C 352.24437,634.22601 351.03543,638.65934 351.03543,642.15967 C 351.03871,645.65673 352.24437,650.08677 356.84195,650.08677 C 361.43296,650.08842 362.64191,645.65673 362.64355,642.15967 M 341.56102,642.15967 C 341.56759,633.10577 347.43818,626.84261 356.84195,626.8344 C 366.24244,626.82455 372.11303,633.10577 372.1196,642.15967 C 372.12616,651.22015 366.23915,657.48167 356.84195,657.48167 C 347.44803,657.48331 341.55281,651.22015 341.56102,642.15967 z"
         id="path2414"
         style="fill:#ffffff" />
      <path
         d="M 314.8888,649.40675 L 320.14834,649.40675 C 323.55834,649.40675 327.70914,647.32723 327.70914,640.40704 C 327.70914,633.49342 323.55834,631.40734 320.14834,631.40734 L 314.8888,631.40734 L 314.8888,649.40675 M 303.37595,623.33406 L 320.77909,623.33406 C 331.66612,623.33406 339.0873,630.09657 339.0873,640.40704 C 339.0873,650.71752 331.6694,657.48002 320.77909,657.48002 L 303.37595,657.48002 L 303.37595,623.33406 L 303.37595,623.33406 z"
         id="path2416"
         style="fill:#ffffff" />
      <path
         d="M 422.91969,643.24542 C 420.58066,643.24542 418.41902,644.49379 418.41902,646.88374 C 418.41902,648.43105 419.33394,649.7714 421.72717,649.76975 C 424.01529,649.76975 426.45288,648.41463 426.92101,645.60253 L 426.92101,642.93826 C 426.14736,643.35876 424.39965,643.24542 422.91969,643.24542 M 423.4831,626.8344 C 430.67103,626.82782 436.59253,629.47074 437.05902,635.27726 L 437.05902,656.66202 L 426.92101,656.66202 L 426.92101,653.77765 C 424.46043,655.88673 422.00642,657.47017 417.57801,657.47017 C 412.41374,657.47017 408.25637,653.39 408.25637,648.6068 C 408.25637,643.82361 411.20152,638.50986 422.9936,638.5115 C 426.03731,638.5115 426.92266,637.31407 426.92595,635.88994 C 426.93251,634.14224 424.9105,633.16326 423.22192,633.16326 C 421.53664,633.16326 419.62139,633.86957 419.62139,635.69612 L 410.12563,635.69612 C 410.11906,631.40899 413.00343,626.84589 423.4831,626.8344 z"
         id="path2418"
         style="fill:#ffffff" />
      <path
         d="M 476.89982,697.3274 C 482.49774,697.3274 487.06411,692.79059 487.06411,687.16311 C 487.06411,681.53234 482.49774,676.99882 476.89982,676.99882 C 471.30519,676.99882 466.73553,681.53563 466.73553,687.16311 C 466.73553,692.79059 471.30519,697.3274 476.89982,697.3274 M 476.89982,675.77181 C 483.19091,675.77181 488.29276,680.83752 488.29276,687.16311 C 488.29276,693.48868 483.19254,698.5544 476.89982,698.5544 C 470.60545,698.5544 465.50688,693.48868 465.50688,687.16311 C 465.50688,680.83752 470.60874,675.77181 476.89982,675.77181 z M 474.25198,686.6999 L 477.16592,686.6999 C 479.45075,686.6999 480.37716,685.90818 480.37716,684.41343 C 480.37716,683.28825 479.67907,682.49325 477.56014,682.49325 L 474.2487,682.49325 L 474.25198,686.6999 L 474.25198,686.6999 z M 471.80125,680.37432 L 478.02663,680.37432 C 481.10647,680.37432 483.15969,682.03004 483.15969,684.21467 C 483.15969,686.23341 481.60253,687.55896 479.68235,687.72651 L 479.68235,687.79386 C 482.62914,688.78598 483.06114,690.8392 483.09399,693.62009 L 480.31146,693.62009 C 480.2129,690.27744 479.4836,688.82047 476.53681,688.82047 L 474.25198,688.82047 L 474.25198,693.62009 L 471.80125,693.62009 L 471.80125,680.37432 L 471.80125,680.37432 z"
         id="path2420"
         style="fill:#ffc20f" />
    </g>
  </g>
</svg>
